<?xml version="1.0" encoding="UTF-8"?>
<!-- Generated by Pixelmator Pro 3.2.2 -->
<svg width="400" height="400" viewBox="0 0 400 400" xmlns="http://www.w3.org/2000/svg" xmlns:xlink="http://www.w3.org/1999/xlink">
    <g id="Group">
        <path id="Path-copy-4" fill="#000000" fill-rule="evenodd" stroke="#387556" stroke-width="10.234502" stroke-linecap="round" stroke-linejoin="round" d="M 192.324127 275.465607 C 192.324127 275.465607 175.246536 275.553955 156.503372 275.465607 C 137.760193 275.377228 121.961922 251.158661 121.961922 251.158661 L 114.286049 265.231079 C 114.286049 265.231079 109.678154 260.516998 105.330856 251.158661 C 88.135612 249.221771 83.582542 238.365524 83.582542 238.365524 L 96.375671 228.131027 L 77.185974 219.175842 C 77.185974 219.175842 92.74231 210.583862 101.49292 205.103394 C 106.025581 169.430969 124.520546 142.417084 124.520546 142.417084 L 142.430923 111.713562 L 200 110.434265 L 257.569061 111.713562 L 275.479462 142.417084 C 275.479462 142.417084 293.974426 169.430969 298.50708 205.103394 C 307.25769 210.583862 322.814026 219.175842 322.814026 219.175842 L 303.624329 228.131027 L 316.41745 238.365524 C 316.41745 238.365524 311.86441 249.221771 294.669128 251.158661 C 290.321869 260.516998 285.713959 265.231079 285.713959 265.231079 L 278.038086 251.158661 C 278.038086 251.158661 262.239807 275.377228 243.496628 275.465607 C 224.753464 275.553955 217.910385 275.465607 217.910385 275.465607"/>
        <path id="Path-copy-3" fill="#f5009f" fill-rule="evenodd" stroke="#000000" stroke-width="10.234502" stroke-linecap="round" stroke-linejoin="round" d="M 170.575806 302.331177 C 170.575806 302.331177 150.344269 343.391785 151.386108 359.900238 C 152.427963 376.408691 142.430923 373.972687 142.430923 373.972687 L 125.799858 373.972687 C 125.799858 373.972687 110.101303 375.477448 115.565361 353.503662 C 121.029419 331.529907 123.672798 300.01532 153.944748 283.141479 Z"/>
        <path id="Path-copy-2" fill="#f5009f" fill-rule="evenodd" stroke="#000000" stroke-width="10.234502" stroke-linecap="round" stroke-linejoin="round" d="M 162.899933 257.555237 C 162.899933 257.555237 142.958771 257.839111 142.430923 275.465607 C 141.903091 293.092102 154.114746 311.188721 200 310.00705 C 245.885254 308.825378 256.997223 288.719757 257.569061 279.303528 C 258.14093 269.887329 247.122711 258.300598 234.541443 258.834534 C 221.960175 259.368469 162.899933 257.555237 162.899933 257.555237 Z"/>
        <g id="Group-copy-2">
            <path id="Ellipse" fill="none" stroke="#57bd8a" stroke-width="10.234502" stroke-linecap="round" stroke-linejoin="round" d="M 189.765503 203.184433 C 189.765503 187.993713 177.450989 175.679214 162.260269 175.679214 C 147.069565 175.679214 134.755051 187.993713 134.755051 203.184433 C 134.755051 218.375153 147.069565 230.689651 162.260269 230.689651 C 177.450989 230.689651 189.765503 218.375153 189.765503 203.184433 Z"/>
            <path id="Ellipse-copy" fill="none" stroke="#57bd8a" stroke-width="10.234502" stroke-linecap="round" stroke-linejoin="round" d="M 265.244965 203.184433 C 265.244965 187.993713 252.930435 175.679214 237.739731 175.679214 C 222.549011 175.679214 210.234497 187.993713 210.234497 203.184433 C 210.234497 218.375153 222.549011 230.689651 237.739731 230.689651 C 252.930435 230.689651 265.244965 218.375153 265.244965 203.184433 Z"/>
            <path id="Path" fill="none" stroke="#57bd8a" stroke-width="9.054572" stroke-linecap="round" stroke-linejoin="round" d="M 189.765503 198.706833 L 210.234497 198.706833"/>
            <path id="path1" fill="none" stroke="#ffffff" stroke-width="9.054572" stroke-linecap="round" stroke-linejoin="round" d="M 169.296494 198.706833 L 169.296494 208.941345"/>
            <path id="Path-copy" fill="none" stroke="#ffffff" stroke-width="9.054572" stroke-linecap="round" stroke-linejoin="round" d="M 231.982819 198.706833 L 231.982819 208.941345"/>
        </g>
        <path id="path2" fill="#57bd8a" fill-rule="evenodd" stroke="#000000" stroke-width="10.234502" stroke-linecap="round" stroke-linejoin="round" d="M 151.280945 146.320358 C 138.204895 146.324677 126.975479 146.310532 124.520325 146.255402 C 93.433182 142.307098 93.816818 120.669128 93.816818 120.669128 C 93.816818 120.669128 161.620392 93.803589 161.620392 93.803589 L 199.999771 26 L 238.379166 93.803589 C 238.379166 93.803589 306.182739 120.669128 306.182739 120.669128 C 306.182739 120.669128 306.566376 142.307098 275.479218 146.255402 C 268.932129 146.40242 199.999771 146.255402 199.999771 146.255402 C 199.999771 146.255402 173.074371 146.313187 151.280945 146.320358 Z"/>
    </g>
</svg>
