<?xml version="1.0" encoding="UTF-8"?>
<!-- Generated by Pixelmator Pro 3.2.2 -->
<svg width="757" height="757" viewBox="0 0 757 757" xmlns="http://www.w3.org/2000/svg" xmlns:xlink="http://www.w3.org/1999/xlink">
    <path id="Path" fill="inherit" stroke="none" d="M 379 0 C 169.701035 0 -0.050358 173.757751 -0.050358 388.068604 C -0.050358 559.530273 108.547569 704.991272 259.188507 756.313354 C 278.109436 759.902954 284.237396 747.872864 284.237396 737.653748 L 284.237396 665.408325 C 178.798248 688.886475 156.84491 619.616211 156.84491 619.616211 C 139.598114 574.761963 114.738724 562.828796 114.738724 562.828796 C 80.339905 538.736267 117.360489 539.253662 117.360489 539.253662 C 155.423462 541.970154 175.449966 579.25708 175.449966 579.25708 C 209.248611 638.566895 264.11615 621.427185 285.753632 611.499146 C 289.133484 586.436401 298.957184 569.296631 309.823334 559.627258 C 225.642548 549.763855 137.134277 516.486938 137.134277 367.824341 C 137.134277 325.427856 151.948822 290.825073 176.176468 263.660278 C 172.259613 253.861572 159.277145 214.375549 179.872208 160.951477 C 179.872208 160.951477 211.712448 150.53833 284.142639 200.728516 C 314.371918 192.126282 346.780701 187.825195 379 187.663513 C 411.219299 187.825195 443.659668 192.126282 473.952087 200.728516 C 546.319153 150.53833 578.096191 160.951477 578.096191 160.951477 C 598.722839 214.407959 585.740356 253.89389 581.823486 263.660278 C 606.145935 290.825073 620.834106 325.460205 620.834106 367.824341 C 620.834106 516.875 532.167969 549.699158 447.766052 559.303894 C 461.348694 571.333984 473.762604 594.941467 473.762604 631.161255 L 473.762604 737.653748 C 473.762604 747.96991 479.827393 760.097046 499.064178 756.281006 C 649.578796 704.894287 758.050354 559.465576 758.050354 388.068604 C 758.050354 173.757751 588.330566 0 379 0 Z"/>
</svg>
