<?xml version="1.0" encoding="UTF-8"?>
<!-- Generated by Pixelmator Pro 3.2.2 -->
<svg width="756" height="622" viewBox="0 0 756 622" xmlns="http://www.w3.org/2000/svg" xmlns:xlink="http://www.w3.org/1999/xlink">
    <path id="Path" fill="inherit" stroke="none" d="M 674.131836 158.615051 C 674.585571 165.178894 674.585571 171.742859 674.585571 178.367279 C 674.585571 380.21524 520.923401 613.007385 239.945419 613.007385 L 239.945419 612.886414 C 156.943634 613.007385 75.666023 589.232056 5.792076 544.40387 C 17.861212 545.855774 29.990845 546.581787 42.150726 546.612 C 110.935722 546.672546 177.754578 523.592957 231.869064 481.093842 C 166.502151 479.853699 109.181313 437.233582 89.15683 375.012512 C 112.054924 379.428772 135.648712 378.521301 158.123322 372.38089 C 86.857948 357.982605 35.586811 295.368317 35.586811 222.65097 L 35.586811 220.715118 C 56.821232 232.542297 80.596519 239.106171 104.916283 239.832123 C 37.794949 194.973663 17.105 105.680237 57.637936 35.86676 C 135.194992 131.300629 249.624924 189.3172 372.463928 195.457642 C 360.152802 142.401825 376.970947 86.805176 416.656921 49.508789 C 478.182281 -8.326233 574.947144 -5.361877 632.782166 56.13324 C 666.993164 49.387817 699.782471 36.834717 729.789001 19.048584 C 718.385315 54.409058 694.519287 84.445801 662.63739 103.532593 C 692.916138 99.963257 722.499084 91.856689 750.35791 79.485046 C 729.849487 110.217499 704.017273 136.987366 674.131836 158.615051 Z"/>
</svg>
