<?xml version="1.0" encoding="UTF-8"?>
<!-- Generated by Pixelmator Pro 3.2.2 -->
<svg width="756" height="534" viewBox="0 0 756 534" xmlns="http://www.w3.org/2000/svg" xmlns:xlink="http://www.w3.org/1999/xlink">
    <path id="Path" fill="current" fill-rule="evenodd" stroke="none" d="M 377.996094 533.669922 C 377.996094 533.669922 141.278412 533.670044 82.246094 517.753906 C 49.675083 508.982941 24.020315 483.172546 15.320313 450.388672 C -0.495834 390.966034 -0.496094 267.001953 -0.496094 267.001953 C -0.496094 267.001953 -0.495834 143.02948 15.320313 83.613281 C 24.020315 50.832611 49.675785 25.017212 82.25 16.255859 C 141.282318 0.333252 377.998047 0.333984 377.998047 0.333984 C 377.998047 0.333984 614.718933 0.333252 673.748047 16.255859 C 706.322266 25.017212 731.969299 50.832611 740.675781 83.613281 L 740.673828 83.617188 C 756.493225 143.033386 756.492188 267.003906 756.492188 267.003906 C 756.492188 267.003906 756.493225 390.96991 740.673828 450.392578 C 731.967407 483.173218 706.318359 508.986206 673.744141 517.753906 C 614.715027 533.670044 377.996094 533.669922 377.996094 533.669922 Z M 300.578125 379.556641 L 498.427734 267.007813 L 300.578125 154.447266 L 300.578125 379.556641 Z"/>
</svg>
